<mxfile host="app.diagrams.net" modified="2024-02-23T08:23:15.600Z" agent="Mozilla/5.0 (X11; Linux x86_64) AppleWebKit/537.36 (KHTML, like Gecko) Chrome/121.0.0.0 Safari/537.36" etag="HXoDrS-VgMlH_cfcv8dE" version="23.1.5" type="device" pages="3">
  <diagram name="Page-1" id="Npjm-cnjYQpAcYW0yd_M">
    <mxGraphModel dx="2214" dy="1954" grid="1" gridSize="10" guides="1" tooltips="1" connect="1" arrows="1" fold="1" page="1" pageScale="1" pageWidth="850" pageHeight="1100" math="0" shadow="0">
      <root>
        <mxCell id="0" />
        <mxCell id="1" parent="0" />
        <mxCell id="gbIrw4wUFT8zuQWl6DzC-1" value="Azure" style="shape=umlFrame;whiteSpace=wrap;html=1;pointerEvents=0;" vertex="1" parent="1">
          <mxGeometry x="-230" y="1090" width="580" height="810" as="geometry" />
        </mxCell>
        <mxCell id="gbIrw4wUFT8zuQWl6DzC-19" style="edgeStyle=orthogonalEdgeStyle;rounded=0;orthogonalLoop=1;jettySize=auto;html=1;" edge="1" parent="1" source="gbIrw4wUFT8zuQWl6DzC-2" target="gbIrw4wUFT8zuQWl6DzC-10">
          <mxGeometry relative="1" as="geometry" />
        </mxCell>
        <mxCell id="gbIrw4wUFT8zuQWl6DzC-2" value="VNet1" style="shape=umlFrame;whiteSpace=wrap;html=1;pointerEvents=0;" vertex="1" parent="1">
          <mxGeometry x="-170" y="1130" width="480" height="460" as="geometry" />
        </mxCell>
        <mxCell id="gbIrw4wUFT8zuQWl6DzC-3" value="Subnet" style="shape=umlFrame;whiteSpace=wrap;html=1;pointerEvents=0;" vertex="1" parent="1">
          <mxGeometry x="-130" y="1180" width="400" height="140" as="geometry" />
        </mxCell>
        <mxCell id="gbIrw4wUFT8zuQWl6DzC-4" value="Subnet 2" style="shape=umlFrame;whiteSpace=wrap;html=1;pointerEvents=0;" vertex="1" parent="1">
          <mxGeometry x="100" y="1370" width="170" height="140" as="geometry" />
        </mxCell>
        <mxCell id="gbIrw4wUFT8zuQWl6DzC-6" value="10.10.0.0/20" style="text;html=1;align=center;verticalAlign=middle;whiteSpace=wrap;rounded=0;" vertex="1" parent="1">
          <mxGeometry x="-95" y="1130" width="60" height="30" as="geometry" />
        </mxCell>
        <mxCell id="gbIrw4wUFT8zuQWl6DzC-7" value="10.10.0.0/24" style="text;html=1;align=center;verticalAlign=middle;whiteSpace=wrap;rounded=0;" vertex="1" parent="1">
          <mxGeometry x="-50" y="1180" width="60" height="30" as="geometry" />
        </mxCell>
        <mxCell id="gbIrw4wUFT8zuQWl6DzC-8" value="10.10.1.0/26" style="text;html=1;align=center;verticalAlign=middle;whiteSpace=wrap;rounded=0;" vertex="1" parent="1">
          <mxGeometry x="170" y="1370" width="60" height="30" as="geometry" />
        </mxCell>
        <mxCell id="gbIrw4wUFT8zuQWl6DzC-9" value="10.10.04" style="verticalLabelPosition=bottom;html=1;verticalAlign=top;align=center;strokeColor=none;fillColor=#00BEF2;shape=mxgraph.azure.virtual_machine;" vertex="1" parent="1">
          <mxGeometry x="-80" y="1240" width="50" height="40" as="geometry" />
        </mxCell>
        <mxCell id="gbIrw4wUFT8zuQWl6DzC-10" value="VNet2" style="shape=umlFrame;whiteSpace=wrap;html=1;pointerEvents=0;" vertex="1" parent="1">
          <mxGeometry x="-170" y="1630" width="480" height="240" as="geometry" />
        </mxCell>
        <UserObject label="10.11.0.0/24" link="10.11.0.0/24" id="gbIrw4wUFT8zuQWl6DzC-13">
          <mxCell style="text;whiteSpace=wrap;" vertex="1" parent="1">
            <mxGeometry x="-95" y="1630" width="100" height="40" as="geometry" />
          </mxCell>
        </UserObject>
        <mxCell id="gbIrw4wUFT8zuQWl6DzC-14" value="Subnet 2" style="shape=umlFrame;whiteSpace=wrap;html=1;pointerEvents=0;" vertex="1" parent="1">
          <mxGeometry x="-140" y="1680" width="400" height="140" as="geometry" />
        </mxCell>
        <mxCell id="gbIrw4wUFT8zuQWl6DzC-15" value="10.11.0.4" style="verticalLabelPosition=bottom;html=1;verticalAlign=top;align=center;strokeColor=none;fillColor=#00BEF2;shape=mxgraph.azure.virtual_machine;" vertex="1" parent="1">
          <mxGeometry x="-90" y="1710" width="50" height="40" as="geometry" />
        </mxCell>
        <mxCell id="gbIrw4wUFT8zuQWl6DzC-16" style="edgeStyle=orthogonalEdgeStyle;rounded=0;orthogonalLoop=1;jettySize=auto;html=1;entryX=0.5;entryY=0;entryDx=0;entryDy=0;entryPerimeter=0;" edge="1" parent="1" source="gbIrw4wUFT8zuQWl6DzC-9" target="gbIrw4wUFT8zuQWl6DzC-15">
          <mxGeometry relative="1" as="geometry" />
        </mxCell>
        <mxCell id="gbIrw4wUFT8zuQWl6DzC-23" style="edgeStyle=orthogonalEdgeStyle;rounded=0;orthogonalLoop=1;jettySize=auto;html=1;entryX=1;entryY=0.75;entryDx=0;entryDy=0;" edge="1" parent="1" source="gbIrw4wUFT8zuQWl6DzC-20" target="gbIrw4wUFT8zuQWl6DzC-22">
          <mxGeometry relative="1" as="geometry" />
        </mxCell>
        <mxCell id="gbIrw4wUFT8zuQWl6DzC-20" value="NAT gateway" style="sketch=0;outlineConnect=0;fontColor=#232F3E;gradientColor=none;strokeColor=#232F3E;fillColor=#ffffff;dashed=0;verticalLabelPosition=bottom;verticalAlign=top;align=center;html=1;fontSize=12;fontStyle=0;aspect=fixed;shape=mxgraph.aws4.resourceIcon;resIcon=mxgraph.aws4.nat_gateway;" vertex="1" parent="1">
          <mxGeometry x="-340" y="-490" width="60" height="60" as="geometry" />
        </mxCell>
        <mxCell id="gbIrw4wUFT8zuQWl6DzC-21" value="Haus" style="shape=umlFrame;whiteSpace=wrap;html=1;pointerEvents=0;" vertex="1" parent="1">
          <mxGeometry x="-310" y="-630" width="400" height="390" as="geometry" />
        </mxCell>
        <mxCell id="gbIrw4wUFT8zuQWl6DzC-28" style="edgeStyle=orthogonalEdgeStyle;rounded=0;orthogonalLoop=1;jettySize=auto;html=1;" edge="1" parent="1" source="gbIrw4wUFT8zuQWl6DzC-22" target="gbIrw4wUFT8zuQWl6DzC-27">
          <mxGeometry relative="1" as="geometry" />
        </mxCell>
        <mxCell id="gbIrw4wUFT8zuQWl6DzC-30" value="80.1.1.2:64909" style="edgeStyle=orthogonalEdgeStyle;rounded=0;orthogonalLoop=1;jettySize=auto;html=1;" edge="1" parent="1" source="gbIrw4wUFT8zuQWl6DzC-22" target="gbIrw4wUFT8zuQWl6DzC-29">
          <mxGeometry relative="1" as="geometry">
            <Array as="points">
              <mxPoint x="-520" y="-334" />
            </Array>
          </mxGeometry>
        </mxCell>
        <mxCell id="gbIrw4wUFT8zuQWl6DzC-22" value="" style="image;aspect=fixed;perimeter=ellipsePerimeter;html=1;align=center;shadow=0;dashed=0;spacingTop=3;image=img/lib/active_directory/internet_cloud.svg;" vertex="1" parent="1">
          <mxGeometry x="-540" y="-475.75" width="50" height="31.5" as="geometry" />
        </mxCell>
        <mxCell id="gbIrw4wUFT8zuQWl6DzC-31" style="edgeStyle=orthogonalEdgeStyle;rounded=0;orthogonalLoop=1;jettySize=auto;html=1;" edge="1" parent="1" source="gbIrw4wUFT8zuQWl6DzC-24" target="gbIrw4wUFT8zuQWl6DzC-20">
          <mxGeometry relative="1" as="geometry">
            <Array as="points">
              <mxPoint x="-170" y="-565" />
              <mxPoint x="-170" y="-460" />
            </Array>
          </mxGeometry>
        </mxCell>
        <mxCell id="gbIrw4wUFT8zuQWl6DzC-24" value="Tablet" style="image;points=[];aspect=fixed;html=1;align=center;shadow=0;dashed=0;image=img/lib/allied_telesis/computer_and_terminals/IP_TV.svg;" vertex="1" parent="1">
          <mxGeometry x="-49.6" y="-590" width="49.199999999999996" height="50.4" as="geometry" />
        </mxCell>
        <mxCell id="gbIrw4wUFT8zuQWl6DzC-32" style="edgeStyle=orthogonalEdgeStyle;rounded=0;orthogonalLoop=1;jettySize=auto;html=1;" edge="1" parent="1" source="gbIrw4wUFT8zuQWl6DzC-25" target="gbIrw4wUFT8zuQWl6DzC-20">
          <mxGeometry relative="1" as="geometry" />
        </mxCell>
        <mxCell id="gbIrw4wUFT8zuQWl6DzC-25" value="Hand" style="image;points=[];aspect=fixed;html=1;align=center;shadow=0;dashed=0;image=img/lib/allied_telesis/computer_and_terminals/IP_TV.svg;" vertex="1" parent="1">
          <mxGeometry x="-49" y="-480" width="49.199999999999996" height="50.4" as="geometry" />
        </mxCell>
        <mxCell id="gbIrw4wUFT8zuQWl6DzC-34" value="192.168.0.2" style="edgeStyle=orthogonalEdgeStyle;rounded=0;orthogonalLoop=1;jettySize=auto;html=1;" edge="1" parent="1" source="gbIrw4wUFT8zuQWl6DzC-26">
          <mxGeometry relative="1" as="geometry">
            <mxPoint x="-250" y="-460" as="targetPoint" />
          </mxGeometry>
        </mxCell>
        <mxCell id="gbIrw4wUFT8zuQWl6DzC-26" value="TV" style="image;points=[];aspect=fixed;html=1;align=center;shadow=0;dashed=0;image=img/lib/allied_telesis/computer_and_terminals/IP_TV.svg;" vertex="1" parent="1">
          <mxGeometry x="-49" y="-380" width="49.199999999999996" height="50.4" as="geometry" />
        </mxCell>
        <mxCell id="gbIrw4wUFT8zuQWl6DzC-27" value="" style="image;points=[];aspect=fixed;html=1;align=center;shadow=0;dashed=0;image=img/lib/allied_telesis/computer_and_terminals/IP_TV.svg;" vertex="1" parent="1">
          <mxGeometry x="-730" y="-480" width="49.2" height="50.4" as="geometry" />
        </mxCell>
        <mxCell id="gbIrw4wUFT8zuQWl6DzC-29" value="" style="image;points=[];aspect=fixed;html=1;align=center;shadow=0;dashed=0;image=img/lib/allied_telesis/computer_and_terminals/IP_TV.svg;" vertex="1" parent="1">
          <mxGeometry x="-730" y="-359.6" width="49.2" height="50.4" as="geometry" />
        </mxCell>
        <mxCell id="gbIrw4wUFT8zuQWl6DzC-36" value="Azure" style="shape=umlFrame;whiteSpace=wrap;html=1;pointerEvents=0;" vertex="1" parent="1">
          <mxGeometry x="-290" y="70" width="610" height="390" as="geometry" />
        </mxCell>
        <mxCell id="gbIrw4wUFT8zuQWl6DzC-43" value="Pubic IP" style="sketch=0;outlineConnect=0;fontColor=#232F3E;gradientColor=none;fillColor=#8C4FFF;strokeColor=none;dashed=0;verticalLabelPosition=bottom;verticalAlign=top;align=center;html=1;fontSize=12;fontStyle=0;aspect=fixed;pointerEvents=1;shape=mxgraph.aws4.network_load_balancer;" vertex="1" parent="1">
          <mxGeometry x="-320" y="226" width="78" height="78" as="geometry" />
        </mxCell>
        <mxCell id="gbIrw4wUFT8zuQWl6DzC-58" value="3306" style="edgeStyle=orthogonalEdgeStyle;rounded=0;orthogonalLoop=1;jettySize=auto;html=1;" edge="1" parent="1" source="gbIrw4wUFT8zuQWl6DzC-38" target="gbIrw4wUFT8zuQWl6DzC-57">
          <mxGeometry relative="1" as="geometry">
            <mxPoint x="50" y="350" as="targetPoint" />
            <Array as="points">
              <mxPoint x="39" y="265" />
              <mxPoint x="39" y="350" />
            </Array>
          </mxGeometry>
        </mxCell>
        <mxCell id="gbIrw4wUFT8zuQWl6DzC-38" value="jumphost" style="image;points=[];aspect=fixed;html=1;align=center;shadow=0;dashed=0;image=img/lib/allied_telesis/computer_and_terminals/IP_TV.svg;" vertex="1" parent="1">
          <mxGeometry x="-84.2" y="234.8" width="49.199999999999996" height="50.4" as="geometry" />
        </mxCell>
        <mxCell id="gbIrw4wUFT8zuQWl6DzC-47" value="ssh" style="edgeStyle=orthogonalEdgeStyle;rounded=0;orthogonalLoop=1;jettySize=auto;html=1;" edge="1" parent="1" source="gbIrw4wUFT8zuQWl6DzC-46" target="gbIrw4wUFT8zuQWl6DzC-43">
          <mxGeometry relative="1" as="geometry" />
        </mxCell>
        <mxCell id="gbIrw4wUFT8zuQWl6DzC-46" value="Mac" style="image;aspect=fixed;perimeter=ellipsePerimeter;html=1;align=center;shadow=0;dashed=0;spacingTop=3;image=img/lib/active_directory/laptop_client.svg;" vertex="1" parent="1">
          <mxGeometry x="-560" y="240" width="45" height="50" as="geometry" />
        </mxCell>
        <mxCell id="gbIrw4wUFT8zuQWl6DzC-48" value="ssh" style="edgeStyle=orthogonalEdgeStyle;rounded=0;orthogonalLoop=1;jettySize=auto;html=1;entryX=0.045;entryY=0.437;entryDx=0;entryDy=0;entryPerimeter=0;" edge="1" parent="1" source="gbIrw4wUFT8zuQWl6DzC-43" target="gbIrw4wUFT8zuQWl6DzC-38">
          <mxGeometry relative="1" as="geometry">
            <Array as="points">
              <mxPoint x="-78" y="265" />
            </Array>
          </mxGeometry>
        </mxCell>
        <mxCell id="gbIrw4wUFT8zuQWl6DzC-56" value="VNET" style="shape=umlFrame;whiteSpace=wrap;html=1;pointerEvents=0;" vertex="1" parent="1">
          <mxGeometry x="-220" y="80" width="490" height="360" as="geometry" />
        </mxCell>
        <mxCell id="gbIrw4wUFT8zuQWl6DzC-57" value="" style="strokeWidth=2;html=1;shape=mxgraph.flowchart.database;whiteSpace=wrap;" vertex="1" parent="1">
          <mxGeometry x="150" y="300" width="60" height="60" as="geometry" />
        </mxCell>
        <mxCell id="gbIrw4wUFT8zuQWl6DzC-60" value="Subnet" style="shape=umlFrame;whiteSpace=wrap;html=1;pointerEvents=0;" vertex="1" parent="1">
          <mxGeometry x="-150" y="90" width="220" height="320" as="geometry" />
        </mxCell>
        <mxCell id="gbIrw4wUFT8zuQWl6DzC-62" value="Pubic IP" style="sketch=0;outlineConnect=0;fontColor=#232F3E;gradientColor=none;fillColor=#8C4FFF;strokeColor=none;dashed=0;verticalLabelPosition=bottom;verticalAlign=top;align=center;html=1;fontSize=12;fontStyle=0;aspect=fixed;pointerEvents=1;shape=mxgraph.aws4.network_load_balancer;" vertex="1" parent="1">
          <mxGeometry x="-310" y="730" width="78" height="78" as="geometry" />
        </mxCell>
        <mxCell id="gbIrw4wUFT8zuQWl6DzC-63" value="jumphost" style="image;points=[];aspect=fixed;html=1;align=center;shadow=0;dashed=0;image=img/lib/allied_telesis/computer_and_terminals/IP_TV.svg;" vertex="1" parent="1">
          <mxGeometry x="-74.2" y="738.8" width="49.199999999999996" height="50.4" as="geometry" />
        </mxCell>
        <mxCell id="gbIrw4wUFT8zuQWl6DzC-64" value="ssh" style="edgeStyle=orthogonalEdgeStyle;rounded=0;orthogonalLoop=1;jettySize=auto;html=1;" edge="1" parent="1" source="gbIrw4wUFT8zuQWl6DzC-65" target="gbIrw4wUFT8zuQWl6DzC-62">
          <mxGeometry relative="1" as="geometry" />
        </mxCell>
        <mxCell id="gbIrw4wUFT8zuQWl6DzC-65" value="Mac" style="image;aspect=fixed;perimeter=ellipsePerimeter;html=1;align=center;shadow=0;dashed=0;spacingTop=3;image=img/lib/active_directory/laptop_client.svg;" vertex="1" parent="1">
          <mxGeometry x="-460" y="744.4" width="45" height="50" as="geometry" />
        </mxCell>
        <mxCell id="gbIrw4wUFT8zuQWl6DzC-66" value="ssh" style="edgeStyle=orthogonalEdgeStyle;rounded=0;orthogonalLoop=1;jettySize=auto;html=1;entryX=0.045;entryY=0.437;entryDx=0;entryDy=0;entryPerimeter=0;" edge="1" parent="1" source="gbIrw4wUFT8zuQWl6DzC-62" target="gbIrw4wUFT8zuQWl6DzC-63">
          <mxGeometry relative="1" as="geometry">
            <Array as="points">
              <mxPoint x="-68" y="769" />
            </Array>
          </mxGeometry>
        </mxCell>
        <mxCell id="gbIrw4wUFT8zuQWl6DzC-67" value="jumphost" style="image;points=[];aspect=fixed;html=1;align=center;shadow=0;dashed=0;image=img/lib/allied_telesis/computer_and_terminals/IP_TV.svg;" vertex="1" parent="1">
          <mxGeometry x="-69.60000000000001" y="860" width="49.199999999999996" height="50.4" as="geometry" />
        </mxCell>
        <mxCell id="gbIrw4wUFT8zuQWl6DzC-68" style="edgeStyle=orthogonalEdgeStyle;rounded=0;orthogonalLoop=1;jettySize=auto;html=1;entryX=0.045;entryY=0.913;entryDx=0;entryDy=0;entryPerimeter=0;" edge="1" parent="1" source="gbIrw4wUFT8zuQWl6DzC-62" target="gbIrw4wUFT8zuQWl6DzC-67">
          <mxGeometry relative="1" as="geometry">
            <Array as="points">
              <mxPoint x="-170" y="769" />
              <mxPoint x="-170" y="896" />
            </Array>
          </mxGeometry>
        </mxCell>
        <mxCell id="0MfmigJE6mQ0QeV8iBo0-2" value="Subnet" style="shape=umlFrame;whiteSpace=wrap;html=1;pointerEvents=0;" vertex="1" parent="1">
          <mxGeometry x="100" y="90" width="130" height="320" as="geometry" />
        </mxCell>
        <mxCell id="0MfmigJE6mQ0QeV8iBo0-4" value="" style="image;sketch=0;aspect=fixed;html=1;points=[];align=center;fontSize=12;image=img/lib/mscae/Network_Security_Groups_Classic.svg;" vertex="1" parent="1">
          <mxGeometry x="83" y="330" width="37" height="50" as="geometry" />
        </mxCell>
      </root>
    </mxGraphModel>
  </diagram>
  <diagram id="J5Zwnr2dlYq_vBcUQLm4" name="Page-2">
    <mxGraphModel dx="1364" dy="854" grid="1" gridSize="10" guides="1" tooltips="1" connect="1" arrows="1" fold="1" page="1" pageScale="1" pageWidth="850" pageHeight="1100" math="0" shadow="0">
      <root>
        <mxCell id="0" />
        <mxCell id="1" parent="0" />
      </root>
    </mxGraphModel>
  </diagram>
  <diagram id="-nNZaM10T5G0k1MF4Rdj" name="Page-3">
    <mxGraphModel dx="2214" dy="854" grid="1" gridSize="10" guides="1" tooltips="1" connect="1" arrows="1" fold="1" page="1" pageScale="1" pageWidth="850" pageHeight="1100" math="0" shadow="0">
      <root>
        <mxCell id="0" />
        <mxCell id="1" parent="0" />
        <mxCell id="VGoCEc8UXSuX9Zwnb9SJ-1" value="Azure" style="shape=umlFrame;whiteSpace=wrap;html=1;pointerEvents=0;" vertex="1" parent="1">
          <mxGeometry x="110" y="110" width="610" height="780" as="geometry" />
        </mxCell>
        <mxCell id="VGoCEc8UXSuX9Zwnb9SJ-37" style="edgeStyle=orthogonalEdgeStyle;rounded=0;orthogonalLoop=1;jettySize=auto;html=1;" edge="1" parent="1" source="VGoCEc8UXSuX9Zwnb9SJ-2" target="VGoCEc8UXSuX9Zwnb9SJ-13">
          <mxGeometry relative="1" as="geometry">
            <Array as="points">
              <mxPoint x="210" y="295" />
              <mxPoint x="210" y="295" />
            </Array>
          </mxGeometry>
        </mxCell>
        <mxCell id="VGoCEc8UXSuX9Zwnb9SJ-2" value="Pubic IP" style="sketch=0;outlineConnect=0;fontColor=#232F3E;gradientColor=none;fillColor=#8C4FFF;strokeColor=none;dashed=0;verticalLabelPosition=bottom;verticalAlign=top;align=center;html=1;fontSize=12;fontStyle=0;aspect=fixed;pointerEvents=1;shape=mxgraph.aws4.network_load_balancer;" vertex="1" parent="1">
          <mxGeometry x="80" y="266" width="78" height="78" as="geometry" />
        </mxCell>
        <mxCell id="VGoCEc8UXSuX9Zwnb9SJ-16" style="edgeStyle=orthogonalEdgeStyle;rounded=0;orthogonalLoop=1;jettySize=auto;html=1;" edge="1" parent="1" source="VGoCEc8UXSuX9Zwnb9SJ-6" target="VGoCEc8UXSuX9Zwnb9SJ-2">
          <mxGeometry relative="1" as="geometry" />
        </mxCell>
        <mxCell id="VGoCEc8UXSuX9Zwnb9SJ-6" value="user" style="image;aspect=fixed;perimeter=ellipsePerimeter;html=1;align=center;shadow=0;dashed=0;spacingTop=3;image=img/lib/active_directory/laptop_client.svg;" vertex="1" parent="1">
          <mxGeometry x="-160" y="280" width="45" height="50" as="geometry" />
        </mxCell>
        <mxCell id="VGoCEc8UXSuX9Zwnb9SJ-8" value="VNET" style="shape=umlFrame;whiteSpace=wrap;html=1;pointerEvents=0;" vertex="1" parent="1">
          <mxGeometry x="180" y="120" width="330" height="370" as="geometry" />
        </mxCell>
        <mxCell id="VGoCEc8UXSuX9Zwnb9SJ-10" value="Subnet" style="shape=umlFrame;whiteSpace=wrap;html=1;pointerEvents=0;" vertex="1" parent="1">
          <mxGeometry x="250" y="130" width="190" height="320" as="geometry" />
        </mxCell>
        <mxCell id="VGoCEc8UXSuX9Zwnb9SJ-13" value="VM1" style="image;points=[];aspect=fixed;html=1;align=center;shadow=0;dashed=0;image=img/lib/allied_telesis/computer_and_terminals/IP_TV.svg;" vertex="1" parent="1">
          <mxGeometry x="330" y="270" width="49.199999999999996" height="50.4" as="geometry" />
        </mxCell>
        <mxCell id="VGoCEc8UXSuX9Zwnb9SJ-17" value="Bestellungen" style="verticalLabelPosition=bottom;html=1;verticalAlign=top;align=center;strokeColor=none;fillColor=#00BEF2;shape=mxgraph.azure.storage;pointerEvents=1;" vertex="1" parent="1">
          <mxGeometry x="560" y="195" width="50" height="40" as="geometry" />
        </mxCell>
        <mxCell id="VGoCEc8UXSuX9Zwnb9SJ-19" value="accept order" style="edgeStyle=orthogonalEdgeStyle;rounded=0;orthogonalLoop=1;jettySize=auto;html=1;entryX=0;entryY=0.5;entryDx=0;entryDy=0;entryPerimeter=0;" edge="1" parent="1" source="VGoCEc8UXSuX9Zwnb9SJ-13" target="VGoCEc8UXSuX9Zwnb9SJ-17">
          <mxGeometry relative="1" as="geometry">
            <Array as="points">
              <mxPoint x="470" y="295" />
              <mxPoint x="470" y="215" />
            </Array>
          </mxGeometry>
        </mxCell>
        <mxCell id="VGoCEc8UXSuX9Zwnb9SJ-20" value="notifify user" style="image;aspect=fixed;html=1;points=[];align=center;fontSize=12;image=img/lib/azure2/compute/Function_Apps.svg;" vertex="1" parent="1">
          <mxGeometry x="560" y="360" width="68" height="60" as="geometry" />
        </mxCell>
        <mxCell id="VGoCEc8UXSuX9Zwnb9SJ-21" value="trigger" style="edgeStyle=orthogonalEdgeStyle;rounded=0;orthogonalLoop=1;jettySize=auto;html=1;entryX=0.368;entryY=-0.017;entryDx=0;entryDy=0;entryPerimeter=0;" edge="1" parent="1" source="VGoCEc8UXSuX9Zwnb9SJ-17" target="VGoCEc8UXSuX9Zwnb9SJ-20">
          <mxGeometry relative="1" as="geometry" />
        </mxCell>
        <mxCell id="VGoCEc8UXSuX9Zwnb9SJ-22" value="storniert" style="image;aspect=fixed;html=1;points=[];align=center;fontSize=12;image=img/lib/azure2/integration/System_Topic.svg;" vertex="1" parent="1">
          <mxGeometry x="320.6" y="560" width="68" height="60" as="geometry" />
        </mxCell>
        <mxCell id="VGoCEc8UXSuX9Zwnb9SJ-23" value="cancel order" style="edgeStyle=orthogonalEdgeStyle;rounded=0;orthogonalLoop=1;jettySize=auto;html=1;entryX=0.491;entryY=0.033;entryDx=0;entryDy=0;entryPerimeter=0;exitX=0.467;exitY=1.071;exitDx=0;exitDy=0;exitPerimeter=0;" edge="1" parent="1" source="VGoCEc8UXSuX9Zwnb9SJ-13" target="VGoCEc8UXSuX9Zwnb9SJ-22">
          <mxGeometry relative="1" as="geometry">
            <mxPoint x="354.5999999999999" y="394.4000000000001" as="sourcePoint" />
            <Array as="points">
              <mxPoint x="350" y="324" />
              <mxPoint x="350" y="562" />
            </Array>
          </mxGeometry>
        </mxCell>
        <mxCell id="VGoCEc8UXSuX9Zwnb9SJ-24" value="subcription" style="verticalLabelPosition=bottom;html=1;verticalAlign=top;align=center;strokeColor=none;fillColor=#00BEF2;shape=mxgraph.azure.service_bus_topics_and_subscriptions;pointerEvents=1;" vertex="1" parent="1">
          <mxGeometry x="490" y="520" width="45" height="50" as="geometry" />
        </mxCell>
        <mxCell id="VGoCEc8UXSuX9Zwnb9SJ-34" style="edgeStyle=orthogonalEdgeStyle;rounded=0;orthogonalLoop=1;jettySize=auto;html=1;" edge="1" parent="1" source="VGoCEc8UXSuX9Zwnb9SJ-25" target="VGoCEc8UXSuX9Zwnb9SJ-32">
          <mxGeometry relative="1" as="geometry" />
        </mxCell>
        <mxCell id="VGoCEc8UXSuX9Zwnb9SJ-25" value="&lt;span style=&quot;color: rgb(0, 0, 0); font-family: Helvetica; font-size: 12px; font-style: normal; font-variant-ligatures: normal; font-variant-caps: normal; font-weight: 400; letter-spacing: normal; orphans: 2; text-align: center; text-indent: 0px; text-transform: none; widows: 2; word-spacing: 0px; -webkit-text-stroke-width: 0px; background-color: rgb(251, 251, 251); text-decoration-thickness: initial; text-decoration-style: initial; text-decoration-color: initial; float: none; display: inline !important;&quot;&gt;subcription&lt;/span&gt;" style="verticalLabelPosition=bottom;html=1;verticalAlign=top;align=center;strokeColor=none;fillColor=#00BEF2;shape=mxgraph.azure.service_bus_topics_and_subscriptions;pointerEvents=1;" vertex="1" parent="1">
          <mxGeometry x="490" y="650" width="45" height="50" as="geometry" />
        </mxCell>
        <mxCell id="VGoCEc8UXSuX9Zwnb9SJ-35" style="edgeStyle=orthogonalEdgeStyle;rounded=0;orthogonalLoop=1;jettySize=auto;html=1;" edge="1" parent="1" source="VGoCEc8UXSuX9Zwnb9SJ-26" target="VGoCEc8UXSuX9Zwnb9SJ-33">
          <mxGeometry relative="1" as="geometry" />
        </mxCell>
        <mxCell id="VGoCEc8UXSuX9Zwnb9SJ-26" value="&lt;span style=&quot;color: rgb(0, 0, 0); font-family: Helvetica; font-size: 12px; font-style: normal; font-variant-ligatures: normal; font-variant-caps: normal; font-weight: 400; letter-spacing: normal; orphans: 2; text-align: center; text-indent: 0px; text-transform: none; widows: 2; word-spacing: 0px; -webkit-text-stroke-width: 0px; background-color: rgb(251, 251, 251); text-decoration-thickness: initial; text-decoration-style: initial; text-decoration-color: initial; float: none; display: inline !important;&quot;&gt;subcription&lt;/span&gt;" style="verticalLabelPosition=bottom;html=1;verticalAlign=top;align=center;strokeColor=none;fillColor=#00BEF2;shape=mxgraph.azure.service_bus_topics_and_subscriptions;pointerEvents=1;" vertex="1" parent="1">
          <mxGeometry x="491" y="750" width="45" height="50" as="geometry" />
        </mxCell>
        <mxCell id="VGoCEc8UXSuX9Zwnb9SJ-27" style="edgeStyle=orthogonalEdgeStyle;rounded=0;orthogonalLoop=1;jettySize=auto;html=1;entryX=0;entryY=0.5;entryDx=0;entryDy=0;entryPerimeter=0;" edge="1" parent="1" source="VGoCEc8UXSuX9Zwnb9SJ-22" target="VGoCEc8UXSuX9Zwnb9SJ-24">
          <mxGeometry relative="1" as="geometry" />
        </mxCell>
        <mxCell id="VGoCEc8UXSuX9Zwnb9SJ-28" style="edgeStyle=orthogonalEdgeStyle;rounded=0;orthogonalLoop=1;jettySize=auto;html=1;entryX=0.2;entryY=0.32;entryDx=0;entryDy=0;entryPerimeter=0;" edge="1" parent="1" source="VGoCEc8UXSuX9Zwnb9SJ-22" target="VGoCEc8UXSuX9Zwnb9SJ-25">
          <mxGeometry relative="1" as="geometry">
            <Array as="points">
              <mxPoint x="440" y="590" />
              <mxPoint x="440" y="666" />
            </Array>
          </mxGeometry>
        </mxCell>
        <mxCell id="VGoCEc8UXSuX9Zwnb9SJ-29" style="edgeStyle=orthogonalEdgeStyle;rounded=0;orthogonalLoop=1;jettySize=auto;html=1;entryX=0;entryY=0.5;entryDx=0;entryDy=0;entryPerimeter=0;" edge="1" parent="1" source="VGoCEc8UXSuX9Zwnb9SJ-22" target="VGoCEc8UXSuX9Zwnb9SJ-26">
          <mxGeometry relative="1" as="geometry" />
        </mxCell>
        <mxCell id="VGoCEc8UXSuX9Zwnb9SJ-30" value="notifify user" style="image;aspect=fixed;html=1;points=[];align=center;fontSize=12;image=img/lib/azure2/compute/Function_Apps.svg;" vertex="1" parent="1">
          <mxGeometry x="600" y="510" width="68" height="60" as="geometry" />
        </mxCell>
        <mxCell id="VGoCEc8UXSuX9Zwnb9SJ-31" style="edgeStyle=orthogonalEdgeStyle;rounded=0;orthogonalLoop=1;jettySize=auto;html=1;entryX=0.147;entryY=0.583;entryDx=0;entryDy=0;entryPerimeter=0;" edge="1" parent="1" source="VGoCEc8UXSuX9Zwnb9SJ-24" target="VGoCEc8UXSuX9Zwnb9SJ-30">
          <mxGeometry relative="1" as="geometry" />
        </mxCell>
        <mxCell id="VGoCEc8UXSuX9Zwnb9SJ-32" value="modify table" style="image;aspect=fixed;html=1;points=[];align=center;fontSize=12;image=img/lib/azure2/compute/Function_Apps.svg;" vertex="1" parent="1">
          <mxGeometry x="600" y="645" width="68" height="60" as="geometry" />
        </mxCell>
        <mxCell id="VGoCEc8UXSuX9Zwnb9SJ-33" value="add item in new report table" style="image;aspect=fixed;html=1;points=[];align=center;fontSize=12;image=img/lib/azure2/compute/Function_Apps.svg;" vertex="1" parent="1">
          <mxGeometry x="600" y="750" width="68" height="60" as="geometry" />
        </mxCell>
        <mxCell id="VGoCEc8UXSuX9Zwnb9SJ-36" value="VM2" style="image;points=[];aspect=fixed;html=1;align=center;shadow=0;dashed=0;image=img/lib/allied_telesis/computer_and_terminals/IP_TV.svg;" vertex="1" parent="1">
          <mxGeometry x="330" y="195" width="49.199999999999996" height="50.4" as="geometry" />
        </mxCell>
      </root>
    </mxGraphModel>
  </diagram>
</mxfile>
